# xmcd CD database file
#
# Track frame offsets:
#	150
#	18700
#	37712
#	52937
#	72372
#	88875
#	107900
#	125247
#	143025
#	157175
#	174537
#	190287
#	208362
#	232550
#	248400
#
# Disc length: 3578 seconds
#
# Revision: 0
# Processed by: cddbd v1.5.2PL0 Copyright (c) Steve Scherf et al.
# Submitted via: CDex 1.51
#
DISCID=d10df80f
DTITLE=Various Artist - 永遠のフォーク＆ポップス大全集　ｄｉｓｃ3
DYEAR=2003
DGENRE=Folk
TTITLE0=贈る言葉
TTITLE1=明日に向かって走れ
TTITLE2=ジョニーの子守唄
TTITLE3=帰れない二人
TTITLE4=俺たちの旅
TTITLE5=妹
TTITLE6=無縁坂
TTITLE7=ささやかなこの人生
TTITLE8=旅立ち
TTITLE9=たそがれマイ・ラブ
TTITLE10=雨の物語
TTITLE11=ダンスはうまく踊れない
TTITLE12=夢想花
TTITLE13=めぐり逢い紡いで
TTITLE14=やさしさとして想い出として
EXTD=
EXTT0=
EXTT1=
EXTT2=
EXTT3=
EXTT4=
EXTT5=
EXTT6=
EXTT7=
EXTT8=
EXTT9=
EXTT10=
EXTT11=
EXTT12=
EXTT13=
EXTT14=
PLAYORDER=
